<svg width="40" height="40" viewBox="0 0 40 40" fill="none" xmlns="http://www.w3.org/2000/svg">
<path d="M7.4 7.40048C7.63188 7.16827 7.90727 6.98405 8.21041 6.85836C8.51355 6.73267 8.8385 6.66797 9.16666 6.66797C9.49483 6.66797 9.81977 6.73267 10.1229 6.85836C10.4261 6.98405 10.7014 7.16827 10.9333 7.40048L20 16.4638L29.0667 7.40048C29.2987 7.16848 29.5741 6.98445 29.8772 6.85889C30.1803 6.73333 30.5052 6.66871 30.8333 6.66871C31.1614 6.66871 31.4863 6.73333 31.7894 6.85889C32.0926 6.98445 32.368 7.16848 32.6 7.40048C32.832 7.63249 33.016 7.90791 33.1416 8.21104C33.2671 8.51416 33.3318 8.83905 33.3318 9.16715C33.3318 9.49525 33.2671 9.82014 33.1416 10.1233C33.016 10.4264 32.832 10.7018 32.6 10.9338L23.5367 20.0005L32.6 29.0672C33.0685 29.5357 33.3318 30.1712 33.3318 30.8338C33.3318 31.4964 33.0685 32.1319 32.6 32.6005C32.1314 33.069 31.496 33.3323 30.8333 33.3323C30.1707 33.3323 29.5352 33.069 29.0667 32.6005L20 23.5371L10.9333 32.6005C10.4648 33.069 9.82929 33.3323 9.16666 33.3323C8.50403 33.3323 7.86854 33.069 7.4 32.6005C6.93145 32.1319 6.66822 31.4964 6.66822 30.8338C6.66822 30.1712 6.93145 29.5357 7.4 29.0672L16.4633 20.0005L7.4 10.9338C7.16778 10.7019 6.98356 10.4265 6.85787 10.1234C6.73218 9.82026 6.66748 9.49532 6.66748 9.16715C6.66748 8.83898 6.73218 8.51404 6.85787 8.2109C6.98356 7.90775 7.16778 7.63237 7.4 7.40048Z" fill="#FF0000"/>
</svg>
